<svg width="45" height="44" viewBox="0 0 45 44" fill="none" xmlns="http://www.w3.org/2000/svg">
<path d="M30.4566 3.66632H14.5616C8.34663 3.66632 4.16663 8.02965 4.16663 14.5197V29.498C4.16663 35.9697 8.34663 40.333 14.5616 40.333H30.4566C36.6716 40.333 40.8333 35.9697 40.8333 29.498V14.5197C40.8333 8.02965 36.6716 3.66632 30.4566 3.66632Z" fill="#8331A7"/>
<path fill-rule="evenodd" clip-rule="evenodd" d="M20.8953 15.0137C20.8953 15.8974 21.6121 16.6179 22.4903 16.6179C23.3941 16.6179 24.1128 15.8974 24.1128 15.0137C24.1128 14.13 23.3941 13.4095 22.5086 13.4095C21.6194 13.4095 20.8953 14.13 20.8953 15.0137ZM24.0944 20.8305C24.0944 19.9468 23.3739 19.2263 22.4903 19.2263C21.6066 19.2263 20.8861 19.9468 20.8861 20.8305V28.9338C20.8861 29.8175 21.6066 30.538 22.4903 30.538C23.3739 30.538 24.0944 29.8175 24.0944 28.9338V20.8305Z" fill="white"/>
</svg>
